# xmcd CD database file
#
# Track frame offsets:
#	182
#	15090
#	28235
#	42227
#	55515
#	71132
#	84625
#	98360
#	112385
#	125985
#	141137
#	153912
#	167235
#	180802
#	193335
#	208895
#	222940
#	236777
#
# Disc length: 3335 seconds
#
# Revision: 0
# Processed by: cddbd v1.5.1PL0 Copyright (c) Steve Scherf et al.
# Submitted via: CDex 1.51
#
DISCID=030d0512
DTITLE=Bix Beiderbecke - Wa-Da- Da
DYEAR=1900
DGENRE=Jazz
TTITLE0=Goose Pimples
TTITLE1=Sorry
TTITLE2=Since My Best Girl Turned Me Down
TTITLE3=There'll Come a Time
TTITLE4=Mississippi Mud
TTITLE5=Thou Swell
TTITLE6=Wa-Da-Da
TTITLE7=Ol' Man River
TTITLE8=Take Your Tomorrow
TTITLE9=Rhythm King
TTITLE10=Louisiana
TTITLE11=Margie
TTITLE12=I Like That
TTITLE13=Barnacle Bill The Sailor
TTITLE14=Rockin' Chair
TTITLE15=Deep Harlem
TTITLE16=I'll Be A Friend With Pleasure
TTITLE17=Bessi Couldn't Help It
EXTD=
EXTT0=
EXTT1=
EXTT2=
EXTT3=
EXTT4=
EXTT5=
EXTT6=
EXTT7=
EXTT8=
EXTT9=
EXTT10=
EXTT11=
EXTT12=
EXTT13=
EXTT14=
EXTT15=
EXTT16=
EXTT17=
PLAYORDER=
